<svg width="80" height="80" viewBox="0 0 80 80" fill="none" xmlns="http://www.w3.org/2000/svg">
<path fill-rule="evenodd" clip-rule="evenodd" d="M26.829 24.0099C28.3399 22.3983 30.8713 22.3166 32.4829 23.8276C34.0946 25.3385 34.1762 27.8698 32.6653 29.4815L25.5306 37.0918C24.0882 38.6304 24.0882 41.0247 25.5306 42.5633L32.6653 50.1736C34.1762 51.7853 34.0946 54.3166 32.4829 55.8276C30.8713 57.3385 28.3399 57.2568 26.829 55.6452L14.5648 42.5633C13.1223 41.0247 13.1223 38.6304 14.5648 37.0918L26.829 24.0099Z" fill="#FFA63D"/>
<path fill-rule="evenodd" clip-rule="evenodd" d="M52.1396 55.8278C50.5775 57.3899 48.0449 57.3899 46.4828 55.8278C44.9207 54.2657 44.9207 51.7331 46.4828 50.171L53.9975 42.6562C55.5596 41.0942 55.5596 38.5615 53.9975 36.9994L46.4828 29.4847C44.9207 27.9226 44.9207 25.3899 46.4828 23.8278C48.0449 22.2657 50.5776 22.2657 52.1396 23.8278L65.3112 36.9994C66.8733 38.5615 66.8733 41.0942 65.3112 42.6562L52.1396 55.8278Z" fill="#FFA63D"/>
</svg>
