<svg width="80" height="80" viewBox="0 0 80 80" fill="none" xmlns="http://www.w3.org/2000/svg">
<rect x="53" y="46" width="11" height="25" rx="4" transform="rotate(90 53 46)" fill="#FFA63D"/>
<rect x="61" y="53" width="11" height="41" rx="4" transform="rotate(90 61 53)" fill="#1E2635"/>
<rect x="69" y="61" width="11" height="57" rx="4" transform="rotate(90 69 61)" fill="#FFA63D"/>
<path d="M47.9998 28.8196C48.0147 26.7627 47.2134 25.1359 45.6153 23.9871C44.3809 23.1026 42.8829 22.6412 41.4341 22.1978C38.4159 21.2692 37.5404 20.7802 37.5404 19.3154C37.5404 17.6839 39.6297 17.1034 41.4184 17.1034C42.1154 17.1034 42.8685 17.2211 43.5608 17.4238C44.481 17.6933 45.5711 17.4621 46.0859 16.6532C46.5905 15.8601 46.3639 14.7993 45.4917 14.4487C44.9374 14.2258 44.3447 14.0448 43.7379 13.912C43.025 13.756 42.4704 13.1533 42.4704 12.4236C42.4704 11.6374 41.8331 11 41.0468 11H40.6754C39.7869 11 39.0667 11.7203 39.0667 12.6087C39.0667 13.3622 38.5352 13.9969 37.8331 14.2702C35.5323 15.1656 34.1351 16.9735 34.1351 19.3154C34.1351 21.231 34.9194 22.7502 36.462 23.8217C37.6352 24.6398 39.0661 25.079 40.4483 25.5043C43.4087 26.4123 44.6109 26.9657 44.5972 28.7982L44.5971 28.8117C44.5971 30.3498 42.5886 30.8966 40.8678 30.8966C39.8467 30.8966 38.7695 30.6113 37.8612 30.1327C37.0151 29.6869 35.908 29.6409 35.2181 30.3032C34.5424 30.9517 34.5078 32.0371 35.2729 32.5772C36.0395 33.1183 36.9102 33.551 37.831 33.8535C38.5356 34.0851 39.0666 34.7105 39.0666 35.4522C39.0666 36.307 39.7596 37 40.6144 37H40.9883C41.8069 37 42.4704 36.3364 42.4704 35.5179C42.4704 34.7816 43.0167 34.172 43.7235 33.9659C46.3606 33.197 47.9969 31.318 47.9998 28.8196Z" fill="#FFA63D"/>
</svg>
